<svg xmlns="http://www.w3.org/2000/svg" version="1.1" xmlns:xlink="http://www.w3.org/1999/xlink" xmlns:svgjs="http://svgjs.dev/svgjs" width="1442" height="560" preserveAspectRatio="none" viewBox="0 0 1442 560"><g mask="url(&quot;#SvgjsMask1032&quot;)" fill="none"><rect width="1442" height="560" x="0" y="0" fill="rgba(149, 175, 201, 1)"></rect><path d="M 0,20 C 96.2,41 288.6,128.8 481,125 C 673.4,121.2 769.8,-1.4 962,1 C 1154.2,3.4 1346,109.8 1442,137L1442 560L0 560z" fill="#132519"></path><path d="M 0,214 C 57.8,229 173.4,283.2 289,289 C 404.6,294.8 462.4,239.6 578,243 C 693.6,246.4 751.4,316 867,306 C 982.6,296 1041,183.2 1156,193 C 1271,202.8 1384.8,322.6 1442,355L1442 560L0 560z" fill="rgba(171, 188, 206, 1)"></path><path d="M 0,440 C 57.8,446 173.4,481.4 289,470 C 404.6,458.6 462.4,380.6 578,383 C 693.6,385.4 751.4,483.8 867,482 C 982.6,480.2 1041,360.6 1156,374 C 1271,387.4 1384.8,514 1442,549L1442 560L0 560z" fill="rgba(206, 221, 237, 1)"></path></g><defs><mask id="SvgjsMask1032"><rect width="1442" height="560" fill="#ffffff"></rect></mask></defs></svg>